<svg width="476" height="243" viewBox="0 0 476 243" fill="none" xmlns="http://www.w3.org/2000/svg">
<g clip-path="url(#clip0_23_618)">
<path d="M454.872 134.344L453.381 146.202L449.68 175.656H375.336C375.916 169.055 376.71 159.552 377.558 149.295C377.642 148.27 377.729 147.239 377.813 146.202C379.939 120.417 382.265 91.2386 382.265 91.2386L392.039 93.0572L411.002 96.5788L418.729 98.0131L439.422 101.861C449.738 103.776 456.835 118.695 454.872 134.344Z" fill="#F2F2F2"/>
<path d="M398.637 43.5237L407.78 59.5021L390.208 71.9394L382.712 52.2989L398.637 43.5237Z" fill="#FFB6B6"/>
<path d="M386.998 58.6399C399.507 58.6399 409.647 48.5125 409.647 36.0197C409.647 23.5269 399.507 13.3994 386.998 13.3994C374.49 13.3994 364.35 23.5269 364.35 36.0197C364.35 48.5125 374.49 58.6399 386.998 58.6399Z" fill="#FFB6B6"/>
<path d="M385.372 41.0766C383.574 38.343 384.28 36.9132 382.774 35.9086C382.774 35.9086 382.168 35.5044 377.832 35.2739C376.861 28.2955 375.649 27.4492 375.649 27.4492C374.253 26.4739 372.18 26.7908 370.89 27.3873C368.163 28.6489 368.479 31.3742 366.643 31.8957C364.106 32.6162 359.491 28.5548 359.036 23.9054C358.665 20.1128 361.112 16.4293 362.082 16.6241C363.044 16.8173 365.348 13.8802 366.592 13.9256C367.441 13.9565 370.911 12.4499 371.845 12.5677C372.865 12.6964 376.226 14.4485 376.366 14.0482C377.34 11.2664 377.054 10.4946 377.88 9.69883C379.344 8.28869 381.738 9.27067 385.494 9.79786C393.223 10.8826 394.572 8.33736 398.533 10.0625C400.534 10.934 402.208 13.2842 405.475 17.9491C410.043 24.4729 412.327 27.7348 412.342 31.5393C412.357 35.4193 410.476 35.173 409.649 40.9169C408.729 47.3109 410.684 50.2346 408.549 52.3118C406.899 53.9173 403.545 54.2984 401.782 52.8894C398.765 50.477 402.714 44.6559 399.375 40.403C397.325 37.7924 393.203 36.6308 391.315 37.9212C389.181 39.3804 390.357 43.6631 388.855 44.0692C387.57 44.417 385.685 41.5529 385.372 41.0766Z" fill="#2F2E41"/>
<path d="M438.131 130.168C437.5 140.956 434.99 144.361 434.111 157.102C433.919 159.899 433.804 163.146 433.804 167.018C433.804 168.005 433.81 168.959 433.81 169.892C433.81 171.877 433.771 173.753 433.54 175.656C433.365 177.175 433.063 178.705 432.563 180.318H383.783C383.778 180.307 383.778 180.296 383.772 180.285C383.487 179.045 383.305 177.861 383.168 176.726C383.124 176.363 383.085 176.007 383.053 175.656C383.009 175.245 382.97 174.839 382.932 174.439C382.783 172.842 382.635 171.334 382.284 169.892C381.812 167.901 380.955 166.025 379.197 164.215C378.478 163.475 377.759 162.899 377.056 162.395C376.919 162.301 376.787 162.208 376.65 162.115C374.706 160.782 372.866 159.822 371.274 157.102C371.246 157.064 371.224 157.02 371.202 156.981C370.928 156.504 370.214 155.254 369.697 153.587C369.154 151.853 368.824 149.676 369.418 147.449C370.829 142.173 376.057 141.647 380.329 136.316C380.79 135.74 381.246 135.104 381.68 134.396C383.613 131.259 384.134 128.495 384.749 125.21C384.848 124.678 384.936 124.151 385.007 123.641C385.063 123.257 385.112 122.879 385.151 122.506C385.491 119.374 385.326 116.676 384.925 114.263C383.618 106.359 379.763 101.467 382.487 94.3757C383.344 92.1493 384.557 90.4763 385.782 89.045C388.374 86.0119 391.037 84.043 390.576 80.1273C390.109 76.1783 387.111 75.6353 386.776 72.1855C386.605 70.4416 387.177 68.6042 388.248 66.7998V66.7945C391.674 60.9862 400.23 55.6388 405.666 55.8089C406.671 55.8365 407.561 56.0611 408.302 56.4944C410.987 58.0739 409.867 61.5237 413.98 66.3612C417.039 69.9534 420.498 71.3904 421.811 72.0703C427.011 74.7799 431.24 82.7707 434.111 92.9883C434.133 93.0651 434.155 93.1417 434.177 93.2242C435.951 99.6246 437.204 106.892 437.824 114.263C438.087 117.383 438.241 120.521 438.274 123.625C438.302 126.104 438.247 128.254 438.131 130.168Z" fill="#6C63FF"/>
<path d="M401.603 167.128L400.609 169.892L399.983 171.625L398.533 175.656L396.853 180.318H386.051L387.863 175.656L388.703 173.484L390.098 169.892L392.437 163.859L401.603 167.128Z" fill="#FFB6B6"/>
<path d="M434.282 92.0448C434.255 92.4015 434.216 92.7962 434.177 93.2242C433.749 97.5788 432.739 105.372 431.262 114.263C430.482 118.952 429.57 123.948 428.543 128.912C426.336 139.623 423.59 150.17 420.488 157.102C419.933 158.352 419.362 159.482 418.78 160.48C418.335 161.243 417.868 161.994 417.379 162.734C415.798 165.164 414.024 167.468 412.184 169.618C412.113 169.711 412.031 169.799 411.949 169.892C411.652 170.243 411.344 170.588 411.037 170.934C409.532 172.629 407.995 174.208 406.506 175.656C404.694 177.422 402.948 178.985 401.383 180.318H383.843L383.772 180.285L381.246 179.166C381.246 179.166 381.965 178.321 383.168 176.726C383.415 176.402 383.679 176.045 383.964 175.656C384.316 175.179 384.695 174.652 385.101 174.082C385.946 172.886 386.907 171.482 387.94 169.892C389.939 166.815 392.218 163.031 394.519 158.649C394.783 158.139 395.051 157.623 395.32 157.102C395.326 157.086 395.337 157.069 395.342 157.053C395.798 156.164 396.249 155.248 396.699 154.316C400.515 146.385 401.608 139.804 401.921 137.67C402.361 134.654 402.97 130.436 402.805 125.796C402.695 122.736 402.251 119.5 401.191 116.286V116.281C400.971 115.606 400.724 114.932 400.444 114.263C399.944 113.062 399.351 111.877 398.648 110.709C395.546 105.564 393.025 105.35 391.021 99.745C390.427 98.0833 389.082 94.332 389.494 90.3721V90.3668C389.544 89.8786 389.626 89.385 389.736 88.8912V88.8858C389.763 88.7487 389.802 88.6063 389.84 88.4692C390.153 87.2571 390.669 86.0558 391.454 84.9149C392.987 82.6995 395.079 81.383 396.951 80.5988L396.957 80.5932C399.12 79.694 400.988 79.5019 401.35 79.469C409.373 78.7561 415.595 85.491 418.994 89.171C420.306 90.5914 421.509 91.7818 422.607 92.7523C431.157 100.376 433.502 95.5055 434.111 92.9882C434.205 92.5989 434.255 92.2644 434.282 92.0448Z" fill="#6C63FF"/>
<path d="M434.309 91.7599C434.309 91.7872 434.304 91.8804 434.282 92.0341C434.293 91.9516 434.299 91.8694 434.304 91.7926C434.304 91.7762 434.304 91.7652 434.309 91.7599Z" fill="#6C63FF"/>
<path d="M390.697 207.488H96.3304C93.5954 207.488 91.3661 209.709 91.3661 212.441C91.3661 215.177 93.5954 217.398 96.3304 217.398H390.697C393.431 217.398 395.656 215.177 395.656 212.441C395.656 209.709 393.431 207.488 390.697 207.488Z" fill="#E6E6E6"/>
<path d="M325.371 233.09H161.65C158.916 233.09 156.692 235.311 156.692 238.042C156.692 240.773 158.916 243 161.65 243H325.371C328.106 243 330.335 240.773 330.335 238.042C330.335 235.311 328.106 233.09 325.371 233.09Z" fill="#E6E6E6"/>
<path d="M129.086 44.575L147.638 36.7773L155.595 53.0693L136.1 61.0166L129.086 44.575Z" fill="#FFB6B6"/>
<path opacity="0.1" d="M129.086 44.575L147.638 36.7773L155.595 53.0693L136.1 61.0166L129.086 44.575Z" fill="black"/>
<path d="M131.723 38.3668L150.025 59.4271C150.025 59.4271 137.293 99.5609 124.562 103.137C111.83 106.713 88.3561 124.197 88.3561 124.197L58.9141 105.124L73.2372 84.0637C73.2372 84.0637 107.851 36.7773 117.002 36.7773C126.153 36.7773 131.723 38.3668 131.723 38.3668Z" fill="#6C63FF"/>
<path d="M106.996 175.656H64.3927L61.6992 172.06L50.7022 157.377L48.1718 154C48.1718 154 38.623 136.516 40.6123 120.621C42.6017 104.727 63.2906 101.15 63.2906 101.15H64.1421L89.4701 123.379L87.9582 144.066L95.9792 157.377L106.996 175.656Z" fill="#2F2E41"/>
<path d="M73.1179 175.656H61.6992V158.768L73.1179 175.656Z" fill="#2F2E41"/>
<path d="M319.404 150.018L317.984 157.377L314.459 175.656H243.643C244.196 171.559 244.952 165.662 245.759 159.297C245.839 158.661 245.922 158.021 246.002 157.377C248.027 141.375 250.243 123.268 250.243 123.268L259.553 124.396L277.616 126.582L284.977 127.472L304.687 129.86C314.514 131.048 321.274 140.307 319.404 150.018Z" fill="#F2F2F2"/>
<path d="M419.622 175.656H381.212C381.797 174.969 382.127 174.571 382.127 174.571L393.642 172.672L417.366 168.762C417.366 168.762 418.448 171.555 419.622 175.656Z" fill="#2F2E41"/>
<path d="M256.698 52.5229L273.402 76.1161L244.265 76.9852L241.138 54.8131L256.698 52.5229Z" fill="#A0616A"/>
<path opacity="0.1" d="M256.698 52.5229L273.402 76.1161L244.265 76.9852L241.138 54.8131L256.698 52.5229Z" fill="black"/>
<path d="M174.322 101.406C172.179 95.2311 167.251 91.3302 163.317 92.6932C159.382 94.0561 157.931 100.166 160.076 106.343C160.899 108.822 162.304 111.068 164.175 112.894L173.587 138.943L185.732 134.272L175.164 109.088C175.502 106.497 175.213 103.863 174.322 101.406Z" fill="#A0616A"/>
<path d="M287.391 89.3844L287.368 113.429L285.128 122.31L280.521 140.577L277.167 157.377L274.668 169.894L273.777 174.365C273.105 174.814 272.436 175.243 271.768 175.656H213.572C210.266 173.673 208.416 172.131 208.416 172.131C208.416 172.131 209.331 171.273 210.377 169.894C212.144 167.566 214.28 163.751 212.971 160.107C212.697 159.344 212.625 158.414 212.709 157.377C213.242 150.535 220.427 138.963 220.427 138.963L218.939 121.789L218.287 114.263L222.887 77.5665L237.883 68.8603L240.472 68.6102L266.027 67.2313L276.589 67.8393L277.07 67.9704L287.391 89.3844Z" fill="#CCCCCC"/>
<path d="M288.526 175.656H275.794L275.233 169.894L275.221 169.779L278.826 169.533L288.204 168.893L288.367 172.342L288.494 174.989L288.526 175.656Z" fill="#FFB6B6"/>
<path d="M291.66 95.1978L297.008 126.538L292.644 157.377L291.963 162.177L290.762 170.653L290.392 173.26L290.404 173.542L290.495 175.656H275.376L274.819 169.894L274.772 169.378L273.634 157.576L273.614 157.377L271.199 132.351L275.933 114.263L276.284 112.932V112.928L278.343 81.9576L276.748 67.883L276.732 67.7518C276.764 67.7717 276.792 67.7916 276.824 67.8114C276.907 67.8631 276.991 67.9148 277.07 67.9704C286.364 73.8594 291.903 84.1908 291.66 95.1978Z" fill="#CCCCCC"/>
<path d="M228.304 83.572L222.49 77.5662C222.49 77.5662 210.044 83.17 209.423 86.2789C208.803 89.3879 186.828 135.05 186.828 135.05L177.268 109.548L164.823 117.846C164.823 117.846 174.809 157.44 184.147 159.298C193.486 161.157 224.785 112.436 224.785 112.436L228.304 83.572Z" fill="#CCCCCC"/>
<path d="M464.375 157.102H11.6199C5.21147 157.102 0 162.312 0 168.712C0 175.113 5.21146 180.318 11.6199 180.318H464.375C470.783 180.318 476 175.113 476 168.712C476 162.312 470.783 157.102 464.375 157.102Z" fill="#E6E6E6"/>
<path d="M284.741 121.723L283.861 162.748C283.776 166.719 280.528 169.894 276.551 169.894H200.988C197.104 169.894 193.898 166.863 193.686 162.99L191.441 121.965C191.212 117.781 194.547 114.263 198.742 114.263H277.431C281.53 114.263 284.829 117.629 284.741 121.723Z" fill="#3F3D56"/>
<path d="M162.757 54.4782C172.741 54.4782 180.835 46.3943 180.835 36.4223C180.835 26.4503 172.741 18.3663 162.757 18.3663C152.772 18.3663 144.678 26.4503 144.678 36.4223C144.678 46.3943 152.772 54.4782 162.757 54.4782Z" fill="#FFB6B6"/>
<path d="M132.519 83.6663L134.508 105.124L148.036 159.563L136.349 163.654L116.605 104.329L113.877 80.4874L132.519 83.6663Z" fill="#FFB6B6"/>
<path d="M127.138 121.723L126.258 162.748C126.173 166.719 122.925 169.894 118.947 169.894H43.3844C39.5012 169.894 36.2953 166.863 36.0833 162.99L33.8377 121.965C33.6087 117.781 36.9437 114.263 41.1388 114.263H119.828C123.927 114.263 127.226 117.629 127.138 121.723Z" fill="#3F3D56"/>
<path d="M150.19 170.172C158.075 170.172 164.467 167.348 164.467 163.864C164.467 160.381 158.075 157.557 150.19 157.557C142.304 157.557 135.912 160.381 135.912 163.864C135.912 167.348 142.304 170.172 150.19 170.172Z" fill="#FFB6B6"/>
<path d="M104.47 86.9469L112.626 43.5325C112.626 43.5325 135.304 40.3536 136.1 47.9035C136.896 55.4534 135.531 92.3509 135.531 92.3509L104.47 86.9469Z" fill="#6C63FF"/>
<path d="M155.459 39.2612C155.459 39.2612 166.642 35.2749 171.36 33.1301C176.077 30.9852 185.449 45.9453 185.658 38.0444C185.866 30.1435 182.628 26.8302 182.628 26.8302C182.628 26.8302 181.819 9.54575 164.383 11.7067C164.383 11.7067 168.218 3.05913 155.63 1.72194C143.041 0.384749 123.456 30.7464 125.21 35.2838C126.964 39.8212 129.067 43.5724 124.09 48.4239C119.114 53.2754 109.796 80.6558 116.886 88.0237C123.975 95.3915 124.44 98.5887 119.583 103.172C114.725 107.756 103.244 117.723 115.658 119.453C128.073 121.184 114.522 119.891 123.777 111.761C133.033 103.63 146.538 103.962 141.495 90.917C136.453 77.872 145.214 59.1787 144.117 56.3428C143.021 53.5069 146.573 35.499 146.573 35.499C146.573 35.499 154.841 34.2859 155.459 39.2612Z" fill="#2F2E41"/>
<path d="M247.767 61.0625C258.636 61.0625 267.447 52.2625 267.447 41.4073C267.447 30.552 258.636 21.7521 247.767 21.7521C236.898 21.7521 228.087 30.552 228.087 41.4073C228.087 52.2625 236.898 61.0625 247.767 61.0625Z" fill="#A0616A"/>
<path d="M249.338 14.9822C248.768 15.3142 248.005 14.8119 247.823 14.1791C247.64 13.5463 247.853 12.8744 248.064 12.2505L249.126 9.10944C249.879 6.88174 250.678 4.57619 252.309 2.88061C254.771 0.32142 258.683 -0.329627 262.205 0.142034C266.727 0.747741 271.19 3.19363 273.293 7.23823C275.395 11.2828 274.5 16.9265 270.7 19.4499C276.116 25.6492 278.004 32.5582 277.706 40.7799C277.408 49.0017 268.437 56.5684 262.586 62.3604C261.28 61.5694 260.092 57.8626 260.811 56.5159C261.529 55.1693 260.5 53.6092 261.389 52.3689C262.279 51.1285 263.024 53.1035 262.124 51.8702C261.556 51.092 263.772 49.3015 262.928 48.8357C258.847 46.5827 257.49 41.5024 254.927 37.6119C251.835 32.9193 246.544 29.7415 240.944 29.2142C237.86 28.9238 234.602 29.4498 232.073 31.2384C229.545 33.0269 227.908 36.223 228.494 39.2614C226.976 37.7216 226.22 35.4651 226.505 33.3227C226.79 31.1803 228.11 29.1993 229.978 28.109C228.842 24.3568 229.816 20.0407 232.452 17.1372C235.089 14.2336 245.786 14.7281 249.635 15.4923L249.338 14.9822Z" fill="#2F2E41"/>
<path d="M249.935 29.3281C255.034 29.8778 258.716 34.2889 261.824 38.3625C263.616 40.7104 265.493 43.3033 265.448 46.2551C265.402 49.2394 263.404 51.7991 262.45 54.6274C260.889 59.2502 262.41 64.7503 266.125 67.9179C262.454 68.6136 258.486 65.8646 257.852 62.187C257.114 57.9058 260.364 53.7737 259.979 49.4466C259.64 45.6344 256.632 42.7004 254.075 39.85C251.518 36.9996 249.116 33.2172 250.292 29.5748L249.935 29.3281Z" fill="#2F2E41"/>
<path d="M326.16 159.586C321.11 162.455 318.498 167.383 320.327 170.593C322.156 173.803 327.731 174.078 332.783 171.208C334.817 170.089 336.552 168.499 337.845 166.573L359.09 154.147L353.039 144.315L332.738 157.608C330.419 157.733 328.163 158.412 326.16 159.586Z" fill="#FFB6B6"/>
<path d="M398.091 68.4689C397.456 68.2176 391.885 66.1107 386.8 68.8924C380.958 72.0878 380.055 79.3823 379.739 81.9407C379.008 87.8508 381.162 89.1755 381.616 95.1587C382.467 106.353 384.71 93.5825 381.128 98.6921C379.888 100.461 367.225 127.868 360.242 133.237C346.659 143.678 338.035 151.031 338.035 151.031L347.881 161.713C347.881 161.713 363.44 157.573 377.192 148.655C391.298 139.507 398.352 134.933 403.808 125.984C404.278 125.214 415.522 106.144 409.484 85.0568C408.106 80.2469 405.583 71.4341 398.091 68.4689Z" fill="#6C63FF"/>
<path d="M448.934 121.723L448.054 162.748C447.969 166.719 444.721 169.894 440.743 169.894H365.18C361.297 169.894 358.091 166.863 357.879 162.99L355.634 121.965C355.405 117.781 358.74 114.263 362.935 114.263H441.624C445.723 114.263 449.022 117.629 448.934 121.723Z" fill="#3F3D56"/>
</g>
<defs>
<clipPath id="clip0_23_618">
<rect width="476" height="243" fill="white"/>
</clipPath>
</defs>
</svg>
